<svg xmlns="http://www.w3.org/2000/svg" viewBox="0 0 64 64">
  <defs>
    <linearGradient id="g" x1="0" y1="0" x2="0" y2="1">
      <stop offset="0" stop-color="#7a5c2e"/>
      <stop offset="1" stop-color="#5c4120"/>
    </linearGradient>
  </defs>
  <rect width="64" height="64" rx="14" fill="#fff6dd"/>
  <path d="M18 26h26a0 0 0 0 1 0 0v10a13 13 0 0 1-13 13h0A13 13 0 0 1 18 36V26z" fill="url(#g)"/>
  <path d="M44 28h3a7 7 0 0 1 0 14h-3" fill="none" stroke="#7a5c2e" stroke-width="4" stroke-linecap="round"/>
  <path d="M22 18c3 2 3 4 0 6M32 18c3 2 3 4 0 6M42 18c3 2 3 4 0 6" fill="none" stroke="#c5bea9" stroke-width="3" stroke-linecap="round"/>
  <path d="M18 50h28" stroke="#848c67" stroke-width="4" stroke-linecap="round"/>
</svg>
